<svg width="148" height="133" viewBox="0 0 148 133" fill="none" xmlns="http://www.w3.org/2000/svg">
<path d="M35.3242 68.9571H35.5985L3.65334 132.866H24.536L64.6372 52.6077C67.91 47.3411 69.7941 41.1242 69.7941 34.4686C69.7941 15.4328 54.3603 7.90848e-08 35.3255 7.90848e-08C16.2898 -0.00127568 0.856934 15.4325 0.856934 34.4686C0.856934 53.503 16.2907 68.9535 35.3255 68.9535L35.3242 68.9571Z" fill="#2EA4E7"/>
<path d="M112.673 0.000646786C93.6369 0.000646786 78.2041 15.4344 78.2041 34.4692C78.2041 53.505 93.6379 68.9378 112.673 68.9378H112.947L80.9825 132.866H101.865L141.966 52.608C145.239 47.3414 147.123 41.1246 147.123 34.4689C147.141 15.4331 131.707 0.000320435 112.674 0.000320435L112.673 0.000646786Z" fill="#2EA4E7"/>
</svg>
