<svg width="25" height="17" viewBox="0 0 25 17" fill="none" xmlns="http://www.w3.org/2000/svg">
<path d="M24.777 8.55501C24.7603 8.3659 24.6812 8.11324 24.5547 7.97155L17.888 0.416078C17.5972 0.0214189 16.9976 0.0226646 16.6288 0.345393C16.2598 0.668433 16.2316 1.24198 16.555 1.58269L21.9301 7.66587H1.66664C1.17588 7.66587 0.777832 8.06393 0.777832 8.55468C0.777832 9.04575 1.17589 9.44349 1.66664 9.44349H21.9301L16.555 15.5267C16.2022 15.8674 16.3014 16.4514 16.6706 16.7745C17.0395 17.0976 17.5976 17.0743 17.8884 16.6936L24.5551 9.13813C24.7333 8.94499 24.7671 8.73573 24.7773 8.55467L24.777 8.55501Z" fill="#2EA4E7"/>
</svg>
