<svg width="25" height="17" viewBox="0 0 25 17" fill="none" xmlns="http://www.w3.org/2000/svg">
<path d="M24.777 8.55504C24.7603 8.36593 24.6812 8.11327 24.5547 7.97158L17.888 0.416108C17.5972 0.0214494 16.9976 0.0226951 16.6288 0.345424C16.2598 0.668463 16.2316 1.24201 16.555 1.58272L21.9301 7.6659H1.66664C1.17588 7.6659 0.777832 8.06396 0.777832 8.55471C0.777832 9.04578 1.17589 9.44352 1.66664 9.44352H21.9301L16.555 15.5267C16.2022 15.8674 16.3014 16.4515 16.6706 16.7745C17.0395 17.0976 17.5976 17.0743 17.8884 16.6936L24.5551 9.13816C24.7333 8.94502 24.7671 8.73576 24.7773 8.5547L24.777 8.55504Z" fill="white"/>
</svg>