<svg width="33" height="33" viewBox="0 0 33 33" fill="none" xmlns="http://www.w3.org/2000/svg">
<path d="M26.7159 33H0.687396C0.309313 33 0 32.6907 0 32.3126C0 31.9346 0.309313 31.6252 0.687396 31.6252H26.7159C27.094 31.6252 27.4033 31.9346 27.4033 32.3126C27.4036 32.6907 27.094 33 26.7159 33Z" fill="#0973BA"/>
<path d="M24.8468 33H2.56533C2.18724 33 1.87793 32.6907 1.87793 32.3126V2.74988C1.87793 1.23064 3.10857 0 4.62781 0H22.7843C24.3035 0 25.5341 1.23064 25.5341 2.74988V32.3119C25.5344 32.6902 25.2248 32.9995 24.8468 32.9995V33ZM3.25257 31.6249H24.1595V2.75017C24.1595 1.99398 23.5409 1.37509 22.7844 1.37509L4.62795 1.37537C3.87176 1.37537 3.25287 1.994 3.25287 2.75046L3.25257 31.6249Z" fill="#0973BA"/>
<path d="M22.083 13.0698H5.329C4.95091 13.0698 4.6416 12.7605 4.6416 12.3824V6.10548C4.6416 3.555 9.52276 2.65436 13.7099 2.65436C17.897 2.65436 22.7782 3.56185 22.7782 6.10548V12.3824C22.7716 12.7605 22.462 13.0698 22.0839 13.0698H22.083ZM6.01625 11.695H21.3957V6.10577C21.3957 5.61087 20.5981 5.08146 19.2714 4.68951C17.8344 4.27028 15.8065 4.02945 13.7025 4.02945C9.10312 4.02945 6.00947 5.10187 6.00947 6.10578L6.00976 11.695L6.01625 11.695Z" fill="#0973BA"/>
<path d="M13.7019 27.4313C11.6394 27.4313 9.96191 25.7538 9.96191 23.6914C9.96191 21.8695 12.6157 18.1913 13.1451 17.4697C13.4064 17.1189 13.9907 17.1189 14.252 17.4697C14.7815 18.1916 17.4352 21.8766 17.4352 23.6914C17.4419 25.7538 15.7643 27.4313 13.7019 27.4313ZM13.7019 19.0576C12.6226 20.6252 11.337 22.7838 11.337 23.6844C11.337 24.9907 12.3959 26.0492 13.7019 26.0492C15.0081 26.0492 16.0667 24.9904 16.0667 23.6844C16.067 22.7906 14.7814 20.6252 13.7019 19.0576Z" fill="#0973BA"/>
<path d="M29.9673 28.8957C28.5922 28.8957 27.4718 27.7749 27.4718 26.4001V24.7569C27.4718 24.1175 26.9562 23.6019 26.3168 23.6019H24.8456C24.4675 23.6019 24.1582 23.2926 24.1582 22.9145C24.1582 22.5364 24.4675 22.2271 24.8456 22.2271H26.3168C27.7123 22.2271 28.8469 23.3613 28.8469 24.7572V26.4004C28.8469 27.0191 29.3487 27.5212 29.9676 27.5212C30.5863 27.5212 31.0884 27.0194 31.0884 26.4004L31.0878 9.93447L27.8703 7.26687C27.5814 7.02632 27.5403 6.593 27.7808 6.2975C28.0214 6.00861 28.4547 5.96057 28.7502 6.20802L32.2151 9.08164C32.3733 9.21227 32.4625 9.40477 32.4625 9.61108L32.4628 26.3997C32.4628 27.7748 31.3424 28.8955 29.9673 28.8955L29.9673 28.8957Z" fill="#0973BA"/>
<path d="M15.7444 13.0698H15.6826C15.3045 13.0356 15.0225 12.7055 15.057 12.3274C15.0639 12.2725 15.0708 12.2175 15.0708 12.1626C15.0708 11.4133 14.4588 10.7944 13.7096 10.7944C12.9604 10.7944 12.3483 11.4064 12.3483 12.1626C12.3483 12.2175 12.3553 12.2725 12.3622 12.3274C12.3964 12.7055 12.1147 13.0425 11.7366 13.0698C11.3654 13.1109 11.0216 12.8223 10.9943 12.4443C10.9874 12.3479 10.9805 12.2518 10.9805 12.1554C10.9805 10.6428 12.2111 9.41241 13.7168 9.41241C15.2225 9.41241 16.4531 10.6431 16.4531 12.1554C16.4531 12.2518 16.4462 12.3479 16.4393 12.4443C16.3973 12.8016 16.0949 13.0698 15.7444 13.0698H15.7444Z" fill="#0973BA"/>
<path d="M13.702 10.7871C13.324 10.7871 13.0146 10.4778 13.0146 10.0997V6.41469C13.0146 6.03661 13.324 5.72729 13.702 5.72729C14.0801 5.72729 14.3894 6.03661 14.3894 6.41469V10.0997C14.3897 10.4844 14.087 10.7871 13.702 10.7871Z" fill="#0973BA"/>
</svg>
