<svg width="45" height="45" viewBox="0 0 45 45" fill="none" xmlns="http://www.w3.org/2000/svg">
<path d="M23.1967 23.0351C22.5338 23.0351 21.8989 23.3041 21.4379 23.7805C20.9766 24.2568 20.7285 24.8999 20.7501 25.5626C20.7717 26.2254 21.061 26.8511 21.5522 27.2964V33.0974C21.5522 33.3957 21.794 33.6375 22.0923 33.6375H24.3014H24.3011C24.5994 33.6375 24.8413 33.3957 24.8413 33.0974V27.2964C25.3325 26.8511 25.6218 26.2254 25.6434 25.5626C25.665 24.8999 25.4169 24.2569 24.9556 23.7805C24.4945 23.3041 23.8597 23.0351 23.1968 23.0351H23.1967ZM23.7612 32.5571H22.6322V27.0353C22.6322 27.0235 22.6294 27.012 22.6287 26.9994C22.6277 26.9773 22.6257 26.9552 22.6221 26.9331C22.6184 26.9163 22.6136 26.8997 22.6081 26.8834C22.6038 26.8663 22.5988 26.8492 22.5925 26.8327C22.5855 26.8166 22.5774 26.8008 22.5689 26.7854C22.5616 26.7699 22.5531 26.7546 22.544 26.7397C22.5337 26.7252 22.523 26.7109 22.5111 26.6973C22.5004 26.684 22.4906 26.6702 22.4785 26.6576V26.6579C22.4629 26.6426 22.4464 26.6285 22.4293 26.6152C22.42 26.6077 22.4117 26.5986 22.4017 26.5913L22.4014 26.5916C22.0413 26.338 21.8276 25.9246 21.8286 25.4841C21.8286 24.995 22.0898 24.5427 22.5134 24.2981C22.937 24.0535 23.4591 24.0535 23.8827 24.2981C24.3066 24.5427 24.5675 24.995 24.5675 25.4841C24.5685 25.9251 24.3543 26.3389 23.9935 26.5926C23.9834 26.5998 23.9751 26.6089 23.9658 26.6164H23.9656C23.9485 26.6295 23.9322 26.6438 23.9166 26.6588C23.9043 26.6714 23.8948 26.6852 23.884 26.6985C23.8722 26.7121 23.8614 26.7261 23.8511 26.741C23.842 26.7555 23.8337 26.7708 23.8262 26.7867C23.8177 26.802 23.8096 26.8176 23.8026 26.8339C23.7966 26.8504 23.7913 26.8673 23.787 26.8846C23.7815 26.9009 23.7767 26.9175 23.773 26.9343C23.7697 26.9562 23.7674 26.9783 23.7664 27.0004C23.7664 27.0119 23.7629 27.0235 23.7629 27.0363L23.7612 32.5571Z" fill="white"/>
<path d="M31.4735 18.4882V12.7723C31.4714 10.8773 30.7176 9.06056 29.3776 7.72059C28.0374 6.38061 26.2209 5.62706 24.3257 5.625H22.0671C20.172 5.62701 18.3554 6.38061 17.0151 7.72059C15.6752 9.06056 14.9214 10.8773 14.9193 12.7723V18.4882C13.9189 18.5751 12.9875 19.0336 12.3082 19.7731C11.6292 20.5129 11.2517 21.48 11.25 22.4842V33.2913C11.2513 34.3555 11.6744 35.3758 12.427 36.1281C13.1793 36.8805 14.1996 37.3038 15.2639 37.3049H31.1289H31.1287C32.1929 37.3039 33.2132 36.8805 33.9656 36.1281C34.7182 35.3758 35.1413 34.3555 35.1426 33.2913V22.4842C35.1411 21.48 34.7636 20.5127 34.0844 19.7731C33.4054 19.0333 32.4737 18.5748 31.4733 18.4879L31.4735 18.4882ZM15.9992 12.7723C16.0012 11.1637 16.6411 9.62151 17.7787 8.48398C18.9162 7.34644 20.4586 6.7068 22.0672 6.70481H24.3258C25.9344 6.70682 27.4768 7.34641 28.6143 8.48398C29.7519 9.62151 30.3917 11.1637 30.3938 12.7723V18.4709H15.9996L15.9992 12.7723ZM34.0622 33.2923H34.0625C34.0612 34.07 33.7516 34.8153 33.2016 35.365C32.6517 35.9147 31.9064 36.224 31.1287 36.2251H15.2636C14.4856 36.2241 13.7401 35.9147 13.1901 35.3647C12.6402 34.8148 12.3308 34.069 12.3298 33.2913V22.4842C12.3308 21.7065 12.6402 20.9607 13.1901 20.4107C13.7401 19.8608 14.4856 19.5514 15.2636 19.5506H31.1287H31.1284C31.9064 19.5514 32.6519 19.8608 33.2019 20.4107C33.7518 20.9607 34.0612 21.7065 34.0622 22.4842V33.2923Z" fill="white" stroke="white" stroke-width="0.5"/>
</svg>
