<svg width="26" height="32" viewBox="0 0 26 32" fill="none" xmlns="http://www.w3.org/2000/svg">
<path d="M24.5761 32.0002H1.02411C0.458491 32.0002 0 31.5418 0 30.9761V1.02411C0 0.458491 0.45848 0 1.02411 0H18.5281V5.83314C18.5281 6.51731 19.083 7.07223 19.7672 7.07223H25.6003V30.9762C25.6003 31.5419 25.1419 32.0003 24.5762 32.0003L24.5761 32.0002ZM4.61383 20.7362H5.91497V18.9621H6.90337C8.22971 18.9621 9.294 18.2525 9.294 16.884V16.867C9.294 15.659 8.44086 14.8226 7.02994 14.8226H4.61389L4.61383 20.7362ZM5.91497 17.8047V15.9969H6.92011C7.5708 15.9969 7.97611 16.3094 7.97611 16.8925V16.9094C7.97611 17.4161 7.59598 17.8047 6.94554 17.8047L5.91497 17.8047ZM10.2571 20.7362H12.5634C14.4221 20.7362 15.706 19.4438 15.706 17.7795V17.7626C15.706 16.0983 14.4221 14.8226 12.5634 14.8226H10.2571V20.7362ZM12.5634 15.9969C13.6279 15.9969 14.3459 16.7319 14.3459 17.7795V17.7965C14.3459 18.844 13.6279 19.5621 12.5634 19.5621H11.558V15.9969L12.5634 15.9969ZM16.8634 20.7362H18.1645V18.447H20.9862V17.2642H18.1645V16.0055H21.3663V14.8227H16.8634V20.7362ZM19.2 5.37623V0.000342857L25.6 6.40034H20.2241C19.6585 6.40034 19.2 5.94186 19.2 5.37623Z" fill="#2EA4E7"/>
</svg>
